<mxfile host="app.diagrams.net" modified="2021-11-21T14:13:58.592Z" agent="5.0 (Windows NT 10.0; Win64; x64) AppleWebKit/537.36 (KHTML, like Gecko) Chrome/96.0.4664.45 Safari/537.36" etag="pnRZRgeyAcAg1jsIRqw3" version="15.8.3" type="github">
  <diagram id="iuH-wV5JVHeWwOM-l8EE" name="Page-1">
    <mxGraphModel dx="1185" dy="665" grid="1" gridSize="10" guides="1" tooltips="1" connect="1" arrows="1" fold="1" page="1" pageScale="1" pageWidth="850" pageHeight="1100" background="#182E3E" math="0" shadow="0">
      <root>
        <mxCell id="0" />
        <mxCell id="1" parent="0" />
        <mxCell id="yIqa_ldEa3X-6gHw1k3_-3" style="edgeStyle=orthogonalEdgeStyle;orthogonalLoop=1;jettySize=auto;html=1;strokeColor=#FFFFFF;fontColor=#FFFFFF;labelBackgroundColor=#182E3E;" edge="1" parent="1" source="yIqa_ldEa3X-6gHw1k3_-1" target="yIqa_ldEa3X-6gHw1k3_-2">
          <mxGeometry relative="1" as="geometry" />
        </mxCell>
        <mxCell id="yIqa_ldEa3X-6gHw1k3_-1" value="Start" style="strokeWidth=2;html=1;shape=mxgraph.flowchart.start_1;whiteSpace=wrap;fillColor=#EEEEEE;strokeColor=#FFFFFF;fontColor=#1A1A1A;rounded=1;" vertex="1" parent="1">
          <mxGeometry x="375" y="60" width="100" height="60" as="geometry" />
        </mxCell>
        <mxCell id="yIqa_ldEa3X-6gHw1k3_-6" value="" style="edgeStyle=orthogonalEdgeStyle;orthogonalLoop=1;jettySize=auto;html=1;strokeColor=#FFFFFF;fontColor=#FFFFFF;labelBackgroundColor=#182E3E;" edge="1" parent="1" source="yIqa_ldEa3X-6gHw1k3_-2" target="yIqa_ldEa3X-6gHw1k3_-5">
          <mxGeometry relative="1" as="geometry" />
        </mxCell>
        <mxCell id="yIqa_ldEa3X-6gHw1k3_-2" value="Get&lt;br&gt;X1,X2,X3,X4,x5" style="shape=parallelogram;html=1;strokeWidth=2;perimeter=parallelogramPerimeter;whiteSpace=wrap;arcSize=12;size=0.23;fillColor=#EEEEEE;strokeColor=#FFFFFF;fontColor=#1A1A1A;rounded=1;" vertex="1" parent="1">
          <mxGeometry x="343" y="160" width="165" height="60" as="geometry" />
        </mxCell>
        <mxCell id="yIqa_ldEa3X-6gHw1k3_-8" value="" style="edgeStyle=orthogonalEdgeStyle;orthogonalLoop=1;jettySize=auto;html=1;strokeColor=#FFFFFF;fontColor=#FFFFFF;labelBackgroundColor=#182E3E;" edge="1" parent="1" source="yIqa_ldEa3X-6gHw1k3_-5" target="yIqa_ldEa3X-6gHw1k3_-7">
          <mxGeometry relative="1" as="geometry" />
        </mxCell>
        <mxCell id="yIqa_ldEa3X-6gHw1k3_-13" value="" style="edgeStyle=orthogonalEdgeStyle;orthogonalLoop=1;jettySize=auto;html=1;strokeColor=#FFFFFF;fontColor=#FFFFFF;labelBackgroundColor=#182E3E;" edge="1" parent="1" source="yIqa_ldEa3X-6gHw1k3_-5" target="yIqa_ldEa3X-6gHw1k3_-12">
          <mxGeometry relative="1" as="geometry" />
        </mxCell>
        <mxCell id="yIqa_ldEa3X-6gHw1k3_-5" value="X1 &amp;lt; X2" style="rhombus;whiteSpace=wrap;html=1;strokeWidth=2;arcSize=12;fillColor=#EEEEEE;strokeColor=#FFFFFF;fontColor=#1A1A1A;rounded=1;" vertex="1" parent="1">
          <mxGeometry x="385.5" y="270" width="80" height="80" as="geometry" />
        </mxCell>
        <mxCell id="yIqa_ldEa3X-6gHw1k3_-18" style="edgeStyle=orthogonalEdgeStyle;orthogonalLoop=1;jettySize=auto;html=1;strokeColor=#FFFFFF;fontColor=#FFFFFF;labelBackgroundColor=#182E3E;" edge="1" parent="1" source="yIqa_ldEa3X-6gHw1k3_-7" target="yIqa_ldEa3X-6gHw1k3_-12">
          <mxGeometry relative="1" as="geometry">
            <Array as="points">
              <mxPoint x="630" y="360" />
              <mxPoint x="426" y="360" />
            </Array>
          </mxGeometry>
        </mxCell>
        <mxCell id="yIqa_ldEa3X-6gHw1k3_-7" value="Replace Value of&lt;br&gt;X1 with X2" style="whiteSpace=wrap;html=1;strokeWidth=2;arcSize=12;fillColor=#EEEEEE;strokeColor=#FFFFFF;fontColor=#1A1A1A;rounded=1;" vertex="1" parent="1">
          <mxGeometry x="570" y="280" width="120" height="60" as="geometry" />
        </mxCell>
        <mxCell id="yIqa_ldEa3X-6gHw1k3_-9" value="Yes" style="text;html=1;strokeColor=none;fillColor=none;align=center;verticalAlign=middle;whiteSpace=wrap;fontColor=#FFFFFF;rounded=1;" vertex="1" parent="1">
          <mxGeometry x="365" y="350" width="60" height="30" as="geometry" />
        </mxCell>
        <mxCell id="yIqa_ldEa3X-6gHw1k3_-11" value="No" style="text;html=1;align=center;verticalAlign=middle;whiteSpace=wrap;rounded=1;fontColor=#fff;" vertex="1" parent="1">
          <mxGeometry x="465.5" y="280" width="60" height="30" as="geometry" />
        </mxCell>
        <mxCell id="yIqa_ldEa3X-6gHw1k3_-15" style="edgeStyle=orthogonalEdgeStyle;orthogonalLoop=1;jettySize=auto;html=1;strokeColor=#FFFFFF;fontColor=#FFFFFF;labelBackgroundColor=#182E3E;" edge="1" parent="1" source="yIqa_ldEa3X-6gHw1k3_-12" target="yIqa_ldEa3X-6gHw1k3_-14">
          <mxGeometry relative="1" as="geometry" />
        </mxCell>
        <mxCell id="yIqa_ldEa3X-6gHw1k3_-20" value="" style="edgeStyle=orthogonalEdgeStyle;orthogonalLoop=1;jettySize=auto;html=1;strokeColor=#FFFFFF;fontColor=#FFFFFF;labelBackgroundColor=#182E3E;" edge="1" parent="1" source="yIqa_ldEa3X-6gHw1k3_-12" target="yIqa_ldEa3X-6gHw1k3_-19">
          <mxGeometry relative="1" as="geometry" />
        </mxCell>
        <mxCell id="yIqa_ldEa3X-6gHw1k3_-12" value="X2 &amp;lt; X3" style="rhombus;whiteSpace=wrap;html=1;strokeWidth=2;arcSize=12;fillColor=#EEEEEE;strokeColor=#FFFFFF;fontColor=#1A1A1A;rounded=1;" vertex="1" parent="1">
          <mxGeometry x="385.5" y="390" width="80" height="80" as="geometry" />
        </mxCell>
        <mxCell id="yIqa_ldEa3X-6gHw1k3_-25" style="edgeStyle=orthogonalEdgeStyle;orthogonalLoop=1;jettySize=auto;html=1;strokeColor=#FFFFFF;fontColor=#FFFFFF;labelBackgroundColor=#182E3E;" edge="1" parent="1" source="yIqa_ldEa3X-6gHw1k3_-14" target="yIqa_ldEa3X-6gHw1k3_-19">
          <mxGeometry relative="1" as="geometry">
            <Array as="points">
              <mxPoint x="630" y="480" />
              <mxPoint x="426" y="480" />
            </Array>
          </mxGeometry>
        </mxCell>
        <mxCell id="yIqa_ldEa3X-6gHw1k3_-14" value="Replace Value of&lt;br&gt;X2 with X3" style="whiteSpace=wrap;html=1;strokeWidth=2;arcSize=12;fillColor=#EEEEEE;strokeColor=#FFFFFF;fontColor=#1A1A1A;rounded=1;" vertex="1" parent="1">
          <mxGeometry x="570" y="400" width="120" height="60" as="geometry" />
        </mxCell>
        <mxCell id="yIqa_ldEa3X-6gHw1k3_-17" value="No" style="text;html=1;strokeColor=none;fillColor=none;align=center;verticalAlign=middle;whiteSpace=wrap;fontColor=#FFFFFF;rounded=1;" vertex="1" parent="1">
          <mxGeometry x="465.5" y="400" width="60" height="30" as="geometry" />
        </mxCell>
        <mxCell id="yIqa_ldEa3X-6gHw1k3_-23" style="edgeStyle=orthogonalEdgeStyle;orthogonalLoop=1;jettySize=auto;html=1;strokeColor=#FFFFFF;fontColor=#FFFFFF;labelBackgroundColor=#182E3E;" edge="1" parent="1" source="yIqa_ldEa3X-6gHw1k3_-19" target="yIqa_ldEa3X-6gHw1k3_-22">
          <mxGeometry relative="1" as="geometry" />
        </mxCell>
        <mxCell id="yIqa_ldEa3X-6gHw1k3_-27" value="" style="edgeStyle=orthogonalEdgeStyle;orthogonalLoop=1;jettySize=auto;html=1;strokeColor=#FFFFFF;fontColor=#FFFFFF;labelBackgroundColor=#182E3E;" edge="1" parent="1" source="yIqa_ldEa3X-6gHw1k3_-19" target="yIqa_ldEa3X-6gHw1k3_-26">
          <mxGeometry relative="1" as="geometry" />
        </mxCell>
        <mxCell id="yIqa_ldEa3X-6gHw1k3_-19" value="X3 &amp;lt; X4" style="rhombus;whiteSpace=wrap;html=1;strokeWidth=2;arcSize=12;fillColor=#EEEEEE;strokeColor=#FFFFFF;fontColor=#1A1A1A;rounded=1;" vertex="1" parent="1">
          <mxGeometry x="385.5" y="510" width="80" height="80" as="geometry" />
        </mxCell>
        <mxCell id="yIqa_ldEa3X-6gHw1k3_-21" value="No" style="text;html=1;strokeColor=none;fillColor=none;align=center;verticalAlign=middle;whiteSpace=wrap;fontColor=#FFFFFF;rounded=1;" vertex="1" parent="1">
          <mxGeometry x="465.5" y="510" width="60" height="40" as="geometry" />
        </mxCell>
        <mxCell id="yIqa_ldEa3X-6gHw1k3_-30" style="edgeStyle=orthogonalEdgeStyle;orthogonalLoop=1;jettySize=auto;html=1;entryX=0.5;entryY=0;entryDx=0;entryDy=0;strokeColor=#FFFFFF;fontColor=#FFFFFF;labelBackgroundColor=#182E3E;" edge="1" parent="1" source="yIqa_ldEa3X-6gHw1k3_-22" target="yIqa_ldEa3X-6gHw1k3_-26">
          <mxGeometry relative="1" as="geometry">
            <mxPoint x="520" y="660" as="targetPoint" />
            <Array as="points">
              <mxPoint x="630" y="600" />
              <mxPoint x="426" y="600" />
            </Array>
          </mxGeometry>
        </mxCell>
        <mxCell id="yIqa_ldEa3X-6gHw1k3_-22" value="Replace Value of&lt;br&gt;X3 with X4" style="whiteSpace=wrap;html=1;strokeWidth=2;arcSize=12;fillColor=#EEEEEE;strokeColor=#FFFFFF;fontColor=#1A1A1A;rounded=1;" vertex="1" parent="1">
          <mxGeometry x="570" y="520" width="120" height="60" as="geometry" />
        </mxCell>
        <mxCell id="yIqa_ldEa3X-6gHw1k3_-24" value="Yes" style="text;html=1;strokeColor=none;fillColor=none;align=center;verticalAlign=middle;whiteSpace=wrap;fontColor=#FFFFFF;rounded=1;" vertex="1" parent="1">
          <mxGeometry x="365" y="470" width="60" height="30" as="geometry" />
        </mxCell>
        <mxCell id="yIqa_ldEa3X-6gHw1k3_-29" style="edgeStyle=orthogonalEdgeStyle;orthogonalLoop=1;jettySize=auto;html=1;strokeColor=#FFFFFF;fontColor=#FFFFFF;labelBackgroundColor=#182E3E;" edge="1" parent="1" source="yIqa_ldEa3X-6gHw1k3_-26" target="yIqa_ldEa3X-6gHw1k3_-28">
          <mxGeometry relative="1" as="geometry" />
        </mxCell>
        <mxCell id="yIqa_ldEa3X-6gHw1k3_-33" value="" style="edgeStyle=orthogonalEdgeStyle;orthogonalLoop=1;jettySize=auto;html=1;strokeColor=#FFFFFF;fontColor=#FFFFFF;labelBackgroundColor=#182E3E;" edge="1" parent="1" source="yIqa_ldEa3X-6gHw1k3_-26" target="yIqa_ldEa3X-6gHw1k3_-32">
          <mxGeometry relative="1" as="geometry" />
        </mxCell>
        <mxCell id="yIqa_ldEa3X-6gHw1k3_-26" value="X4 &amp;lt; X5" style="rhombus;whiteSpace=wrap;html=1;strokeWidth=2;arcSize=12;fillColor=#EEEEEE;strokeColor=#FFFFFF;fontColor=#1A1A1A;rounded=1;" vertex="1" parent="1">
          <mxGeometry x="385.5" y="630" width="80" height="80" as="geometry" />
        </mxCell>
        <mxCell id="yIqa_ldEa3X-6gHw1k3_-35" style="edgeStyle=orthogonalEdgeStyle;orthogonalLoop=1;jettySize=auto;html=1;strokeColor=#FFFFFF;fontColor=#FFFFFF;labelBackgroundColor=#182E3E;" edge="1" parent="1" source="yIqa_ldEa3X-6gHw1k3_-28" target="yIqa_ldEa3X-6gHw1k3_-32">
          <mxGeometry relative="1" as="geometry">
            <Array as="points">
              <mxPoint x="630" y="720" />
              <mxPoint x="426" y="720" />
            </Array>
          </mxGeometry>
        </mxCell>
        <mxCell id="yIqa_ldEa3X-6gHw1k3_-28" value="Replace Value of&lt;br&gt;X4 with X5" style="whiteSpace=wrap;html=1;strokeWidth=2;arcSize=12;fillColor=#EEEEEE;strokeColor=#FFFFFF;fontColor=#1A1A1A;rounded=1;" vertex="1" parent="1">
          <mxGeometry x="570" y="640" width="120" height="60" as="geometry" />
        </mxCell>
        <mxCell id="yIqa_ldEa3X-6gHw1k3_-31" value="Yes" style="text;html=1;strokeColor=none;fillColor=none;align=center;verticalAlign=middle;whiteSpace=wrap;fontColor=#FFFFFF;rounded=1;" vertex="1" parent="1">
          <mxGeometry x="360" y="590" width="60" height="30" as="geometry" />
        </mxCell>
        <mxCell id="yIqa_ldEa3X-6gHw1k3_-38" style="edgeStyle=orthogonalEdgeStyle;orthogonalLoop=1;jettySize=auto;html=1;strokeColor=#FFFFFF;fontColor=#FFFFFF;labelBackgroundColor=#182E3E;" edge="1" parent="1" source="yIqa_ldEa3X-6gHw1k3_-32" target="yIqa_ldEa3X-6gHw1k3_-5">
          <mxGeometry relative="1" as="geometry">
            <Array as="points">
              <mxPoint x="710" y="780" />
              <mxPoint x="710" y="240" />
              <mxPoint x="426" y="240" />
            </Array>
          </mxGeometry>
        </mxCell>
        <mxCell id="yIqa_ldEa3X-6gHw1k3_-45" style="edgeStyle=orthogonalEdgeStyle;orthogonalLoop=1;jettySize=auto;html=1;strokeColor=#FFFFFF;fontColor=#FFFFFF;labelBackgroundColor=#182E3E;" edge="1" parent="1" source="yIqa_ldEa3X-6gHw1k3_-32" target="yIqa_ldEa3X-6gHw1k3_-44">
          <mxGeometry relative="1" as="geometry" />
        </mxCell>
        <mxCell id="yIqa_ldEa3X-6gHw1k3_-32" value="X1 &amp;lt; X2 &amp;lt; X3 &amp;lt; X4 &amp;lt; X5" style="rhombus;whiteSpace=wrap;html=1;strokeWidth=2;arcSize=12;fillColor=#EEEEEE;strokeColor=#FFFFFF;fontColor=#1A1A1A;rounded=1;" vertex="1" parent="1">
          <mxGeometry x="338.25" y="740" width="174.5" height="80" as="geometry" />
        </mxCell>
        <mxCell id="yIqa_ldEa3X-6gHw1k3_-34" value="Yes" style="text;html=1;strokeColor=none;fillColor=none;align=center;verticalAlign=middle;whiteSpace=wrap;fontColor=#FFFFFF;rounded=1;" vertex="1" parent="1">
          <mxGeometry x="365" y="710" width="60" height="30" as="geometry" />
        </mxCell>
        <mxCell id="yIqa_ldEa3X-6gHw1k3_-39" value="No" style="text;html=1;strokeColor=none;fillColor=none;align=center;verticalAlign=middle;whiteSpace=wrap;fontColor=#FFFFFF;rounded=1;" vertex="1" parent="1">
          <mxGeometry x="465.5" y="630" width="60" height="40" as="geometry" />
        </mxCell>
        <mxCell id="yIqa_ldEa3X-6gHw1k3_-40" value="No" style="text;html=1;strokeColor=none;fillColor=none;align=center;verticalAlign=middle;whiteSpace=wrap;fontColor=#FFFFFF;rounded=1;" vertex="1" parent="1">
          <mxGeometry x="512.75" y="740" width="60" height="40" as="geometry" />
        </mxCell>
        <mxCell id="yIqa_ldEa3X-6gHw1k3_-41" value="Yes" style="text;html=1;strokeColor=none;fillColor=none;align=center;verticalAlign=middle;whiteSpace=wrap;fontColor=#FFFFFF;rounded=1;" vertex="1" parent="1">
          <mxGeometry x="365" y="820" width="60" height="30" as="geometry" />
        </mxCell>
        <mxCell id="yIqa_ldEa3X-6gHw1k3_-47" style="edgeStyle=orthogonalEdgeStyle;orthogonalLoop=1;jettySize=auto;html=1;strokeColor=#FFFFFF;fontColor=#FFFFFF;labelBackgroundColor=#182E3E;" edge="1" parent="1" source="yIqa_ldEa3X-6gHw1k3_-44" target="yIqa_ldEa3X-6gHw1k3_-46">
          <mxGeometry relative="1" as="geometry" />
        </mxCell>
        <mxCell id="yIqa_ldEa3X-6gHw1k3_-44" value="Max = X5&lt;br&gt;Min = X1" style="strokeWidth=2;html=1;shape=mxgraph.flowchart.display;whiteSpace=wrap;fillColor=#EEEEEE;strokeColor=#FFFFFF;fontColor=#1A1A1A;rounded=1;" vertex="1" parent="1">
          <mxGeometry x="375.5" y="860" width="100" height="60" as="geometry" />
        </mxCell>
        <mxCell id="yIqa_ldEa3X-6gHw1k3_-46" value="Stop" style="strokeWidth=2;html=1;shape=mxgraph.flowchart.start_1;whiteSpace=wrap;fillColor=#EEEEEE;strokeColor=#FFFFFF;fontColor=#1A1A1A;rounded=1;" vertex="1" parent="1">
          <mxGeometry x="375" y="960" width="100" height="60" as="geometry" />
        </mxCell>
      </root>
    </mxGraphModel>
  </diagram>
</mxfile>
